#N canvas 861 296 450 393 10;
#X obj 70 24 tgl 15 0 empty empty empty 17 7 0 10 -262144 -1 -1 1 1
;
#X obj 69 53 metro 500;
#X obj 69 86 t b b;
#X obj 69 115 random 20;
#X obj 69 145 + 70;
#X floatatom 69 171 5 0 0 0 - - -;
#X obj 69 198 + 0;
#X floatatom 69 224 5 0 0 0 - - -;
#X obj 69 251 mtof;
#X obj 69 277 osc~;
#X obj 69 316 *~ 0.7;
#X obj 69 358 dac~;
#X obj 164 117 random;
#X obj 164 141 / 100;
#X obj 197 93 line;
#X msg 197 70 0 \, 100 30000;
#X connect 0 0 1 0;
#X connect 1 0 2 0;
#X connect 2 0 3 0;
#X connect 2 1 12 0;
#X connect 3 0 4 0;
#X connect 4 0 5 0;
#X connect 5 0 6 0;
#X connect 6 0 7 0;
#X connect 7 0 8 0;
#X connect 8 0 9 0;
#X connect 9 0 10 0;
#X connect 10 0 11 0;
#X connect 10 0 11 1;
#X connect 12 0 13 0;
#X connect 13 0 6 1;
#X connect 14 0 12 1;
#X connect 15 0 14 0;
