#N canvas 576 350 1210 593 10;
#X obj 816 77 bng 15 250 50 0 empty empty empty 17 7 0 10 -262144 -1
-1;
#X floatatom 83 232 5 0 0 0 - - -;
#X floatatom 221 230 5 0 0 0 - - -;
#X floatatom 388 236 5 0 0 0 - - -;
#X obj 448 350 *~;
#X obj 453 399 dac~;
#X floatatom 540 234 5 0 0 0 - - -;
#X floatatom 681 230 5 0 0 0 - - -;
#X floatatom 816 228 5 0 0 0 - - -;
#X floatatom 994 231 5 0 0 0 - - -;
#X obj 83 176 random 100;
#X obj 219 179 random 100;
#X obj 386 180 random 100;
#X obj 534 178 random 100;
#X obj 675 178 random 100;
#X obj 814 171 random 100;
#X obj 994 171 random 100;
#X obj 27 148 * 1;
#X obj 177 151 * 2;
#X obj 349 152 * 3;
#X obj 502 142 * 4;
#X obj 641 145 * 5;
#X obj 767 151 * 6;
#X obj 933 152 * 7;
#X floatatom 140 61 5 0 0 0 - - -;
#X floatatom 26 176 5 0 0 0 - - -;
#X floatatom 176 178 5 0 0 0 - - -;
#X floatatom 349 175 5 0 0 0 - - -;
#X floatatom 503 169 5 0 0 0 - - -;
#X floatatom 642 173 5 0 0 0 - - -;
#X floatatom 769 176 5 0 0 0 - - -;
#X floatatom 938 176 5 0 0 0 - - -;
#X obj 27 204 osc~;
#X obj 177 203 osc~;
#X obj 346 202 osc~;
#X obj 503 206 osc~;
#X obj 648 201 osc~;
#X obj 769 200 osc~;
#X obj 939 210 osc~;
#X obj 176 240 *~;
#X obj 349 248 *~;
#X obj 507 244 *~;
#X obj 650 236 *~;
#X obj 940 237 *~;
#X obj 768 238 *~;
#X obj 25 242 *~;
#X obj 82 203 / 100;
#X obj 232 202 / 100;
#X obj 401 201 / 100;
#X obj 540 205 / 100;
#X obj 703 200 / 100;
#X obj 824 199 / 100;
#X obj 997 201 / 100;
#X floatatom 519 354 5 0 0 0 - - -;
#X connect 0 0 14 0;
#X connect 0 0 15 0;
#X connect 0 0 16 0;
#X connect 0 0 13 0;
#X connect 0 0 12 0;
#X connect 0 0 11 0;
#X connect 0 0 10 0;
#X connect 1 0 45 1;
#X connect 2 0 39 1;
#X connect 3 0 40 1;
#X connect 4 0 5 0;
#X connect 4 0 5 1;
#X connect 6 0 41 1;
#X connect 7 0 42 1;
#X connect 8 0 44 1;
#X connect 9 0 43 1;
#X connect 10 0 46 0;
#X connect 11 0 47 0;
#X connect 12 0 48 0;
#X connect 13 0 49 0;
#X connect 14 0 50 0;
#X connect 15 0 51 0;
#X connect 16 0 52 0;
#X connect 17 0 25 0;
#X connect 18 0 26 0;
#X connect 19 0 27 0;
#X connect 20 0 28 0;
#X connect 21 0 29 0;
#X connect 22 0 30 0;
#X connect 23 0 31 0;
#X connect 24 0 17 0;
#X connect 24 0 18 0;
#X connect 24 0 19 0;
#X connect 24 0 20 0;
#X connect 24 0 21 0;
#X connect 24 0 22 0;
#X connect 24 0 23 0;
#X connect 25 0 32 0;
#X connect 26 0 33 0;
#X connect 27 0 34 0;
#X connect 28 0 35 0;
#X connect 29 0 36 0;
#X connect 30 0 37 0;
#X connect 31 0 38 0;
#X connect 32 0 45 0;
#X connect 33 0 39 0;
#X connect 34 0 40 0;
#X connect 35 0 41 0;
#X connect 36 0 42 0;
#X connect 37 0 44 0;
#X connect 38 0 43 0;
#X connect 39 0 4 0;
#X connect 40 0 4 0;
#X connect 41 0 4 0;
#X connect 42 0 4 0;
#X connect 43 0 4 0;
#X connect 44 0 4 0;
#X connect 45 0 4 0;
#X connect 46 0 1 0;
#X connect 47 0 2 0;
#X connect 48 0 3 0;
#X connect 49 0 6 0;
#X connect 50 0 7 0;
#X connect 51 0 8 0;
#X connect 52 0 9 0;
#X connect 53 0 4 1;
