#N canvas 1054 442 449 443 10;
#X obj 262 60 hsl 100 15 60 1000 0 0 empty empty empty -2 -8 0 10 -260097
-1 -1 2200 1;
#X msg 133 22 \; pd dsp 0;
#X msg 46 22 \; pd dsp 1;
#X text 369 23 11/22/2016;
#X text 333 9 Andy Kim Junghoo;
#X text 68 59 ON;
#X text 154 58 OFF;
#X floatatom 258 89 5 0 0 0 - - -;
#X obj 194 156 osc~;
#X obj 355 153 * 3;
#X obj 276 154 * 4;
#X obj 230 397 dac~;
#X floatatom 331 298 5 0 0 0 - - -;
#X obj 330 328 dbtorms;
#X floatatom 331 362 5 0 0 0 - - -;
#X obj 232 340 *~ 0;
#X obj 274 186 osc~;
#X obj 356 185 osc~;
#X obj 276 230 *~;
#X floatatom 308 205 5 0 0 0 - - -;
#X obj 354 231 *~;
#X floatatom 386 206 5 0 0 0 - - -;
#X obj 312 255 +~;
#X connect 0 0 7 0;
#X connect 7 0 8 0;
#X connect 7 0 9 0;
#X connect 7 0 10 0;
#X connect 8 0 15 0;
#X connect 9 0 17 0;
#X connect 10 0 16 0;
#X connect 12 0 13 0;
#X connect 13 0 14 0;
#X connect 13 0 15 1;
#X connect 15 0 11 0;
#X connect 15 0 11 1;
#X connect 16 0 18 0;
#X connect 17 0 20 0;
#X connect 18 0 22 0;
#X connect 19 0 18 1;
#X connect 20 0 22 0;
#X connect 21 0 20 1;
#X connect 22 0 15 0;
