#N canvas 181 204 850 781 10;
#X obj 400 88 hsl 100 15 60 1000 0 0 empty empty empty -2 -8 0 10 -260097
-1 -1 1700 1;
#X floatatom 397 117 5 0 0 0 - - -;
#X obj 22 192 osc~;
#X obj 203 479 dac~;
#X floatatom 330 431 5 0 0 0 - - -;
#X obj 330 458 dbtorms;
#X floatatom 330 494 5 0 0 0 - - -;
#X msg 185 71 \; pd dsp 0;
#X msg 110 71 \; pd dsp 1;
#X text 328 54 11/22/2016;
#X text 292 40 Andy Kim Junghoo;
#X text 133 102 ON;
#X text 203 104 OFF;
#X obj 285 226 osc~;
#X obj 521 214 osc~;
#X obj 393 363 +~;
#X obj 116 288 line~;
#X obj 354 293 line~;
#X obj 551 287 line~;
#N canvas 1 22 450 300 (subpatch) 0;
#X array array1 500 float 2;
#X coords 0 -2 500 2 200 150 1 0 0;
#X restore -73 544 graph;
#N canvas 1 22 450 300 (subpatch) 0;
#X array array2 500 float 2;
#X coords 0 -2 500 2 200 150 1 0 0;
#X restore 180 543 graph;
#N canvas 1 22 450 300 (subpatch) 0;
#X array array3 500 float 2;
#X coords 0 -2 500 2 200 150 1 0 0;
#X restore 433 541 graph;
#X obj -93 217 tabwrite~ array1;
#X obj 376 236 tabwrite~ array2;
#X obj 585 226 tabwrite~ array3;
#X obj -93 170 tgl 15 0 empty empty empty 17 7 0 10 -262144 -1 -1 1
1;
#X obj 394 181 tgl 15 0 empty empty empty 17 7 0 10 -262144 -1 -1 1
1;
#X obj 604 173 tgl 15 0 empty empty empty 17 7 0 10 -262144 -1 -1 1
1;
#X obj -93 191 metro 100;
#X obj 602 200 metro 100;
#X msg 553 264 0.3 1000;
#X msg 354 269 0.2 1000;
#X msg 116 261 0.4 1000;
#X obj 523 184 * 3;
#X obj 285 177 * 4;
#X floatatom 353 324 5 0 0 0 - - -;
#X obj 286 316 *~;
#X obj 517 329 *~;
#X floatatom 568 323 5 0 0 0 - - -;
#X obj 20 334 *~;
#X obj 203 434 *~ 0;
#X obj 394 210 metro 100;
#X connect 0 0 1 0;
#X connect 1 0 2 0;
#X connect 1 0 33 0;
#X connect 1 0 34 0;
#X connect 2 0 22 0;
#X connect 2 0 39 0;
#X connect 4 0 5 0;
#X connect 5 0 6 0;
#X connect 5 0 40 1;
#X connect 13 0 23 0;
#X connect 13 0 36 0;
#X connect 14 0 24 0;
#X connect 14 0 37 0;
#X connect 15 0 40 0;
#X connect 16 0 39 1;
#X connect 17 0 36 1;
#X connect 18 0 37 1;
#X connect 25 0 28 0;
#X connect 26 0 41 0;
#X connect 27 0 29 0;
#X connect 28 0 22 0;
#X connect 29 0 24 0;
#X connect 30 0 18 0;
#X connect 31 0 17 0;
#X connect 32 0 16 0;
#X connect 33 0 14 0;
#X connect 34 0 13 0;
#X connect 35 0 36 1;
#X connect 36 0 15 0;
#X connect 37 0 15 0;
#X connect 38 0 37 1;
#X connect 39 0 40 0;
#X connect 40 0 3 0;
#X connect 40 0 3 1;
#X connect 41 0 23 0;
