#N canvas 1172 301 663 627 10;
#X obj 302 58 gemhead;
#X obj 302 85 pix_video;
#X obj 304 191 pix_texture2;
#X obj 307 336 rotate 180 1 1 0;
#X obj 363 422 * 15;
#X obj 331 386 hsl 128 15 0 6 0 0 empty empty empty -2 -8 0 10 -260097
-1 -1 9000 1;
#X obj 391 445 + 8;
#X obj 397 261 - 60;
#X obj 437 216 hsl 128 15 60 420 0 0 empty empty empty -2 -8 0 10 -260097
-1 -1 8000 1;
#X obj 470 287 osc~;
#X obj 485 530 *~ 0;
#X obj 544 496 dbtorms;
#X floatatom 397 288 5 0 0 0 - - -;
#X floatatom 470 261 5 0 0 0 - - -;
#X floatatom 544 470 5 0 0 0 - - -;
#X msg 581 432 3;
#X floatatom 586 542 5 0 0 0 - - -;
#X obj 353 125 t a a;
#X obj 353 153 print info;
#X msg 27 37 create;
#X msg 55 69 destroy;
#X obj 69 103 tgl 15 0 empty empty empty 17 7 0 10 -262144 -1 -1 1
1;
#X obj 56 136 gemwin;
#X obj 482 567 output~;
#X obj 309 509 cube;
#X connect 0 0 1 0;
#X connect 1 0 2 0;
#X connect 1 1 17 0;
#X connect 2 0 3 0;
#X connect 3 0 24 0;
#X connect 4 0 6 0;
#X connect 5 0 4 0;
#X connect 5 0 24 1;
#X connect 6 0 14 0;
#X connect 7 0 12 0;
#X connect 8 0 7 0;
#X connect 8 0 13 0;
#X connect 9 0 10 0;
#X connect 10 0 23 0;
#X connect 10 0 23 1;
#X connect 11 0 10 1;
#X connect 11 0 16 0;
#X connect 12 0 3 1;
#X connect 13 0 9 0;
#X connect 14 0 11 0;
#X connect 15 0 14 0;
#X connect 17 0 18 0;
#X connect 19 0 22 0;
#X connect 20 0 22 0;
#X connect 21 0 22 0;
